# xmcd
#
# Track frame offsets:
#	150
#	26676
#	51777
#	77888
#	100628
#	114524
#	136431
#	158021
#	184251
#	204856
#	220003
#	237051
#	257865
#	271431
#	292217
#	311951
#	329658
#
# Disc length: 4639 seconds
#
# Revision: 0
# Processed by: cddbd v1.5.1PL2 Copyright (c) Steve Scherf et al.
# Submitted via: dBpowerAMP V4.0
#
DISCID=fd121d11
DTITLE=Wade Bowen - Joes Music 
DYEAR=2006
DGENRE=Country
TTITLE0=Light Shining
TTITLE1=Broken
TTITLE2=Why Dont You
TTITLE3=Got Drunk
TTITLE4=Yesterday
TTITLE5=If I Could 
TTITLE6=Bluer Skies
TTITLE7=No Doubt
TTITLE8=Dance Halls
TTITLE9=Now And Then
TTITLE10=Different Light
TTITLE11=Circle of Love 
TTITLE12=Close to Stranger
TTITLE13=Exactly Who I Am
TTITLE14=Texas Angel
TTITLE15=Birmingham
TTITLE16=She Thinks
EXTD=
EXTT0=
EXTT1=
EXTT2=
EXTT3=
EXTT4=
EXTT5=
EXTT6=
EXTT7=
EXTT8=
EXTT9=
EXTT10=
EXTT11=
EXTT12=
EXTT13=
EXTT14=
EXTT15=
EXTT16=
PLAYORDER=
